<?xml version="1.0" encoding="utf-8"?>
<!-- Generator: Adobe Illustrator 25.3.0, SVG Export Plug-In . SVG Version: 6.00 Build 0)  -->
<svg version="1.1" id="레이어_1" xmlns="http://www.w3.org/2000/svg" xmlns:xlink="http://www.w3.org/1999/xlink" x="0px"
	 y="0px" viewBox="0 0 42 42" style="enable-background:new 0 0 42 42;" xml:space="preserve">
<style type="text/css">
	.st0{fill:#E83B3B;}
</style>
<path d="M41.9,14.8c0,0,0-0.1-0.1-0.1c0,0,0-0.1-0.1-0.1c0,0-0.1-0.1-0.1-0.1c0,0,0,0-0.1-0.1l-4.7-3.3V5c0-0.5-0.4-0.8-0.8-0.8
	h-8.9l-5.7-4c-0.3-0.2-0.7-0.2-1,0l-5.7,4H5.9C5.5,4.2,5.1,4.6,5.1,5v6l-4.7,3.4c0,0,0,0-0.1,0.1c0,0-0.1,0-0.1,0.1
	c0,0,0,0.1-0.1,0.1c0,0,0,0.1-0.1,0.1C0,14.9,0,15,0,15c0,0,0,0.1,0,0.1v26c0,0,0,0.1,0,0.1c0,0.1,0,0.1,0,0.2
	c0,0.1,0.1,0.1,0.1,0.2c0,0,0,0.1,0.1,0.1c0,0,0,0,0,0c0.1,0.1,0.1,0.1,0.2,0.2c0,0,0,0,0.1,0C0.6,42,0.7,42,0.8,42h40.3
	c0.1,0,0.2,0,0.3-0.1c0,0,0,0,0.1,0c0.1,0,0.2-0.1,0.2-0.2c0,0,0,0,0,0c0,0,0-0.1,0.1-0.1c0,0,0.1-0.1,0.1-0.2c0-0.1,0-0.1,0-0.2
	c0,0,0-0.1,0-0.1v-26c0,0,0-0.1,0-0.1C42,15,42,14.9,41.9,14.8z M1.7,16.9l13.1,11.2L1.7,39.3V16.9z M16.1,29.2l4.4,3.7
	c0.2,0.1,0.4,0.2,0.5,0.2s0.4-0.1,0.5-0.2l4.4-3.7l13,11.1H3.1L16.1,29.2z M27.2,28.1l13.1-11.2v22.4L27.2,28.1z M39.8,15.2
	l-2.9,2.5v-4.5L39.8,15.2z M20.9,1.9l3.3,2.3h-6.6L20.9,1.9z M35.2,5.9v13.2L21,31.2L6.8,19.1V5.9H35.2z M5.1,17.6l-2.9-2.5l2.9-2.1
	V17.6z"/>
<path class="st0" d="M11.9,10.7h18.1c0.5,0,0.8-0.4,0.8-0.8S30.5,9,30.1,9H11.9c-0.5,0-0.8,0.4-0.8,0.8S11.5,10.7,11.9,10.7z"/>
<path class="st0" d="M11.9,15.5h18.1c0.5,0,0.8-0.4,0.8-0.8s-0.4-0.8-0.8-0.8H11.9c-0.5,0-0.8,0.4-0.8,0.8S11.5,15.5,11.9,15.5z"/>
<path class="st0" d="M25.9,18.7h-9.9c-0.5,0-0.8,0.4-0.8,0.8c0,0.5,0.4,0.8,0.8,0.8h9.9c0.5,0,0.8-0.4,0.8-0.8
	C26.8,19.1,26.4,18.7,25.9,18.7z"/>
</svg>
