<?xml version="1.0" encoding="utf-8"?>
<!-- Generator: Adobe Illustrator 25.4.1, SVG Export Plug-In . SVG Version: 6.00 Build 0)  -->
<svg version="1.1" id="레이어_1" xmlns="http://www.w3.org/2000/svg" xmlns:xlink="http://www.w3.org/1999/xlink" x="0px"
	 y="0px" viewBox="0 0 18 18" style="enable-background:new 0 0 18 18;" xml:space="preserve">
<style type="text/css">
	.st0{fill:#FDA60E;stroke:#D37F0F;stroke-miterlimit:10;}
	.st1{fill:#FFFFFF;}
</style>
<path class="st0" d="M7.5,14.4L7.5,14.4c-2.9-0.8-4.8-3.3-4.8-6.2c0-3.5,2.9-6.4,6.4-6.4s6.4,2.9,6.4,6.4c0,2.9-1.9,5.4-4.7,6.2
	L9.1,16L7.5,14.4z"/>
<path class="st1" d="M7.1,10.2C6.6,9.7,6.3,9,6.3,8.2c0-0.8,0.3-1.5,0.8-2l0.7,0.7C7.5,7.3,7.3,7.7,7.3,8.2c0,0.5,0.2,1,0.5,1.3
	L7.1,10.2z M11.1,10.2c0.5-0.5,0.8-1.2,0.8-2c0-0.8-0.3-1.5-0.8-2l-0.7,0.7c0.3,0.3,0.5,0.8,0.5,1.3c0,0.5-0.2,1-0.5,1.3L11.1,10.2z
	 M9.1,7.3c-0.5,0-0.9,0.4-0.9,0.9c0,0.5,0.4,0.9,0.9,0.9c0.5,0,0.9-0.4,0.9-0.9C10,7.7,9.6,7.3,9.1,7.3z M12.8,8.2
	c0,1-0.4,1.9-1.1,2.6l0.7,0.7c0.8-0.8,1.3-2,1.3-3.3S13.2,5.8,12.4,5l-0.7,0.7C12.4,6.3,12.8,7.2,12.8,8.2z M6.5,5.6L5.8,5
	C5,5.8,4.5,7,4.5,8.2s0.5,2.4,1.3,3.3l0.7-0.7c-0.7-0.7-1.1-1.6-1.1-2.6S5.8,6.3,6.5,5.6z"/>
</svg>
