<?xml version="1.0" encoding="utf-8"?>
<!-- Generator: Adobe Illustrator 25.1.0, SVG Export Plug-In . SVG Version: 6.00 Build 0)  -->
<svg version="1.1" id="레이어_1" xmlns="http://www.w3.org/2000/svg" xmlns:xlink="http://www.w3.org/1999/xlink" x="0px"
	 y="0px" viewBox="0 0 18 18" style="enable-background:new 0 0 18 18;" xml:space="preserve">
<style type="text/css">
	.st0{fill:#DB0000;}
	.st1{fill:#840000;}
	.st2{fill:#FFFFFF;}
</style>
<g id="레이어_6">
	<g>
		<path class="st0" d="M7.5,14.4L7.5,14.4c-2.9-0.8-4.8-3.3-4.8-6.2c0-3.5,2.9-6.4,6.4-6.4s6.4,2.9,6.4,6.4c0,2.9-1.9,5.4-4.7,6.2
			h-0.1L9,16L7.5,14.4z"/>
		<path class="st1" d="M9,2.2c3.3,0,6,2.7,6,6c0,2.7-1.8,5.1-4.5,5.8l-0.2,0.1l-0.1,0.1L9,15.4l-1.2-1.2l-0.1-0.1L7.5,14
			C4.8,13.3,3,11,3,8.2C3,4.9,5.7,2.2,9,2.2 M9,1.5c-3.7,0-6.8,3-6.8,6.8c0,3.1,2.1,5.8,5,6.5L9,16.5l1.7-1.7c2.9-0.8,5-3.4,5-6.5
			C15.8,4.5,12.7,1.5,9,1.5L9,1.5z"/>
	</g>
	<g>
		<path class="st2" d="M4.8,11.1L4.8,11.1h8.4l0,0L9,3.9l0,0L4.8,11.1z M9.4,10L9.4,10H8.6l0,0V9.2l0,0h0.7l0,0V10H9.4z M9.4,8.8
			L9.4,8.8H8.6l0,0V6.4l0,0h0.7l0,0v2.4H9.4z"/>
	</g>
</g>
</svg>
